<svg width="155" height="40" viewBox="0 0 155 40" fill="none" xmlns="http://www.w3.org/2000/svg">
<path d="M146.169 22.1183V22.3823C146.169 23.4571 146.659 23.8531 148.281 23.8531C149.865 23.8531 150.299 23.476 150.299 22.7783C150.299 21.9674 149.865 21.4206 147.414 21.0811C143.095 20.4966 142.039 19.0446 142.039 16.5931C142.039 13.9154 143.963 12.3314 148.3 12.3314C153.127 12.3314 154.617 13.7268 154.617 16.2537C154.617 16.5177 154.598 16.8006 154.579 17.1023C154.014 17.0646 153.09 17.0457 152.279 17.0457C151.638 17.0457 151.015 17.0457 150.619 17.0646C150.638 16.9326 150.638 16.8006 150.638 16.6874C150.638 15.9331 150.223 15.4428 148.432 15.4428C147.055 15.4428 146.622 15.8388 146.622 16.4423C146.622 17.1211 146.923 17.6868 149.582 18.0828C153.448 18.6674 154.806 19.8931 154.806 22.6463C154.806 25.3994 153.071 27.0023 148.507 27.0023C143.605 27.0023 142.002 25.6634 142.002 23.0423C142.002 22.7217 142.002 22.3823 142.039 22.0428C142.662 22.0994 143.605 22.156 144.491 22.156C145.132 22.156 145.735 22.156 146.169 22.1183Z" fill="white"/>
<path d="M132.555 22.1183V22.3823C132.555 23.4571 133.046 23.8531 134.667 23.8531C136.251 23.8531 136.685 23.476 136.685 22.7783C136.685 21.9674 136.251 21.4206 133.8 21.0811C129.482 20.4966 128.426 19.0446 128.426 16.5931C128.426 13.9154 130.349 12.3314 134.686 12.3314C139.514 12.3314 141.003 13.7268 141.003 16.2537C141.003 16.5177 140.984 16.8006 140.966 17.1023C140.4 17.0646 139.476 17.0457 138.665 17.0457C138.024 17.0457 137.402 17.0457 137.006 17.0646C137.024 16.9326 137.024 16.8006 137.024 16.6874C137.024 15.9331 136.61 15.4428 134.818 15.4428C133.442 15.4428 133.008 15.8388 133.008 16.4423C133.008 17.1211 133.31 17.6868 135.968 18.0828C139.834 18.6674 141.192 19.8931 141.192 22.6463C141.192 25.3994 139.457 27.0023 134.894 27.0023C129.991 27.0023 128.388 25.6634 128.388 23.0423C128.388 22.7217 128.388 22.3823 128.426 22.0428C129.048 22.0994 129.991 22.156 130.877 22.156C131.518 22.156 132.122 22.156 132.555 22.1183Z" fill="white"/>
<path d="M122.889 21.0623V20.572C123.643 20.5908 124.397 20.5908 125.152 20.5908C125.906 20.5908 126.679 20.5908 127.433 20.572C127.452 20.8737 127.452 21.1565 127.452 21.4017C127.452 25.1543 125.246 26.9834 120.701 26.9834C115.912 26.9834 113.592 24.796 113.592 19.4783C113.592 14.6131 115.836 12.3503 120.758 12.3503C125.585 12.3503 127.414 14.236 127.414 17.3097C127.414 17.668 127.396 18.064 127.358 18.4788C126.604 18.4411 125.83 18.4411 125.095 18.4411C124.341 18.4411 123.605 18.4411 122.851 18.4788C122.87 18.328 122.87 18.1771 122.87 18.064C122.87 16.4611 122.134 15.9143 120.701 15.9143C119.117 15.9331 118.363 16.6685 118.363 19.4594C118.363 22.2314 119.136 23.1554 120.796 23.1554C122.248 23.1554 122.889 22.3257 122.889 21.0623Z" fill="white"/>
<path d="M103.599 14.9903L104.806 15.0091C104.825 14.1983 104.825 13.4251 104.825 12.7651C105.503 12.8028 106.258 12.8028 106.993 12.8028C107.729 12.8028 108.502 12.8028 109.181 12.7651C109.162 13.4817 109.124 14.236 109.105 15.028C110.444 15.028 111.764 15.0091 112.839 14.9903C112.801 16.1594 112.745 17.536 112.763 18.724C112.009 18.7051 110.576 18.6674 109.049 18.6486C109.03 19.5914 109.03 20.5908 109.03 21.6657C109.03 22.5143 109.407 22.8348 110.463 22.8348C111.349 22.8348 112.103 22.7028 112.688 22.4766C112.745 23.6646 112.952 25.3051 113.103 26.4554C111.99 26.7383 111.066 26.8891 109.671 26.8891C105.843 26.8891 104.73 25.1731 104.73 22.5708C104.73 21.496 104.749 20.0817 104.768 18.592L103.618 18.5731C103.618 17.4983 103.637 15.9897 103.599 14.9903Z" fill="white"/>
<path d="M98.2506 14.9903H102.757C102.72 16.6686 102.72 18.1771 102.72 20.836C102.72 23.3251 102.72 25.0977 102.757 26.7383H98.2694C98.2883 26.0028 98.2883 25.456 98.326 24.796L98.2129 24.7771C97.534 26.2668 96.2517 26.9268 94.2906 26.9268C91.9711 26.9268 90.4626 25.8143 90.4626 23.1554C90.4626 21.1754 90.5003 20.1571 90.5003 18.8748C90.5003 17.4228 90.5003 16.216 90.4437 14.9903H94.9694C94.9129 16.6686 94.9129 18.9691 94.9129 21.7977C94.9129 22.9857 95.3277 23.4571 96.3649 23.4571C97.4397 23.4571 98.2883 22.816 98.2883 21.1566C98.2883 17.404 98.2694 16.1783 98.2506 14.9903Z" fill="white"/>
<path d="M85.0246 20.704C85.0246 18.724 84.2703 18.064 82.9881 18.064C81.7246 18.064 80.9515 18.6863 80.9515 20.704C80.9515 22.7217 81.7058 23.4948 82.9881 23.4948C84.3081 23.4948 85.0246 22.7028 85.0246 20.704ZM89.3995 20.6285C89.3995 24.8148 87.2309 26.9834 82.9881 26.9834C78.7452 26.9834 76.6521 24.8148 76.6521 20.6285C76.6521 16.4234 78.9715 14.7451 82.9881 14.7451C87.0046 14.7451 89.3995 16.4234 89.3995 20.6285Z" fill="white"/>
<path d="M72.5975 14.9903H77.0289C76.2935 17.2343 74.7661 22.948 74.1627 24.8337C73.1444 28.1337 71.8055 29.5857 68.3169 29.5857C66.5821 29.5857 65.4695 29.3405 64.3947 29.0388C64.489 28.4354 64.885 26.1914 64.9415 25.5503C65.8467 25.8897 67.0535 26.0406 68.1472 26.0406C69.2598 26.0406 69.7689 25.7388 70.0895 24.8337C68.7884 24.8148 67.6758 24.8148 67.2044 24.8526C66.7329 23.4006 65.0547 17.5548 64.2061 14.9903H69.0147C69.1655 15.8388 69.6935 17.9508 70.1272 19.8177C70.4101 20.968 70.5798 22.0051 70.7307 22.8537H70.8249C71.0135 22.0051 71.2398 20.968 71.5038 19.7988C71.9375 17.932 72.4655 15.7634 72.5975 14.9903Z" fill="white"/>
<path d="M57.4178 24.136C58.5681 24.136 59.2847 23.4005 59.2847 21.9485C58.7944 21.892 58.2664 21.8731 57.7195 21.8731C56.5504 21.8731 56.0412 22.2125 56.0412 23.0045C56.0412 23.8154 56.3995 24.136 57.4178 24.136ZM59.3035 20.4023V19.4594C59.3035 18.5165 58.8887 18.0263 57.8138 18.0263C56.6824 18.0263 56.1544 18.4977 56.2298 19.7234C55.7772 19.6857 55.1172 19.6857 54.4384 19.6857C53.6275 19.6857 52.7978 19.6857 52.2887 19.7611C52.1378 16.5743 53.7218 14.7828 57.9081 14.7828C61.9812 14.7828 63.6029 16.3857 63.6029 19.1954C63.6029 20.7794 63.5464 21.892 63.5464 23.3251C63.5464 24.6263 63.6407 26.2291 63.8104 26.7383H60.2652C59.4921 26.7383 59.3601 26.6628 59.3601 25.7765C59.3601 25.4937 59.3789 25.1354 59.3978 24.7771H59.2847C58.8132 26.2291 57.5498 26.908 55.6075 26.908C53.2127 26.908 51.9304 26.116 51.9304 23.7211C51.9304 21.2697 53.5521 20.2891 57.0595 20.2891C57.9081 20.2891 58.7001 20.308 59.3035 20.4023Z" fill="white"/>
<path d="M50.8261 26.7383H46.3192C46.3758 24.5697 46.3758 21.9674 46.3758 19.2897C46.3758 16.6309 46.3758 14.4057 46.3192 12.1429H50.8261C50.7695 14.3303 50.7695 16.48 50.7695 19.6291C50.7695 22.552 50.7695 24.5509 50.8261 26.7383Z" fill="white"/>
<path d="M45.1377 19.4217C45.1377 24.532 42.6108 27.0023 37.7645 27.0023C32.9183 27.0023 30.4857 24.532 30.4857 19.4217C30.4857 14.3114 33.1823 12.3314 37.7834 12.3314C42.3657 12.3314 45.1377 14.3114 45.1377 19.4217ZM37.7834 23.1931C39.4805 23.1931 40.3291 22.024 40.3291 19.4783C40.3291 16.9703 39.4617 15.9331 37.7834 15.9331C36.1051 15.9331 35.2188 16.9326 35.2188 19.4783C35.2188 22.0617 36.1051 23.1931 37.7834 23.1931Z" fill="white"/>
<path fill-rule="evenodd" clip-rule="evenodd" d="M22 26.2857L22 19.2143V13.7143V12.1429C22 10.4071 20.5929 9 18.8571 9L17.2857 9L11.7913 9L11.7857 9L11.7801 9L2.35714 9C1.05533 9 0 10.0553 0 11.3571V13.7143C0 13.7143 9.73591e-07 13.7143 2.17458e-06 13.7143V13.7143C3.37556e-06 13.7143 4.34915e-06 13.7143 4.34915e-06 13.7143L4.5037e-06 20.7857L4.62391e-06 26.2857L4.65825e-06 27.8571C4.69619e-06 29.5929 1.40711 31 3.14286 31H4.71429H10.2143H18.8571C20.5929 31 22 29.5929 22 27.8571V26.2857ZM14.2511 24.1321C14.6315 23.941 14.941 23.6315 15.1321 23.2511C15.5046 22.5095 15.7143 21.6721 15.7143 20.7857C15.7143 17.7482 13.2518 15.2857 10.2143 15.2857C9.32787 15.2857 8.49044 15.4954 7.74888 15.8679C7.36848 16.059 7.05895 16.3685 6.86788 16.7489C6.4954 17.4905 6.28571 18.3279 6.28571 19.2143C6.28571 22.2519 8.74814 24.7143 11.7857 24.7143C12.6721 24.7143 13.5096 24.5046 14.2511 24.1321Z" fill="url(#paint0_linear_7_64)"/>
<defs>
<linearGradient id="paint0_linear_7_64" x1="0" y1="9" x2="19.7083" y2="31" gradientUnits="userSpaceOnUse">
<stop stop-color="#3094DC"/>
<stop offset="0.333333" stop-color="#978FFC"/>
<stop offset="0.666667" stop-color="#E36AE5"/>
<stop offset="1" stop-color="#A9193C"/>
<stop offset="1" stop-color="#D53871"/>
</linearGradient>
</defs>
</svg>
